PathFileType	4	(X/Y/Z)	Patient4_TMGait_0pt4_02_left_31.trc.trc
DataRate	CameraRate	NumFrames	NumMarkers	Units	OrigDataRate	OrigDataStartFrame	OrigNumFrames
76.502732240437	76.502732240437	4	33	mm	76.502732240437	36	       141
Frame#	Time	Sacral			L.Shoulder			Chest			R.Shoulder			Neck			R.ASIS			L.ASIS			R.Thigh.Superior			R.Thigh.Lateral			R.Thigh.Inferior			R.Patella			L.Thigh.Superior			L.Thigh.Lateral			L.Thigh.Inferior			L.Patella			L.Shank.Superior			L.Shank.Lateral			L.Shank.Inferior			R.Shank.Superior			R.Shank.Lateral			R.Shank.Inferior			R.Heel			R.Midfoot.Superior			R.Midfoot.Lateral			R.Toe			L.Heel			L.Midfoot.Lateral			L.Midfoot.Superior			L.Toe			L.Elbow			L.Wrist			R.Elbow			R.Wrist			
		X1	Y1	Z1	X2	Y2	Z2	X3	Y3	Z3	X4	Y4	Z4	X5	Y5	Z5	X6	Y6	Z6	X7	Y7	Z7	X8	Y8	Z8	X9	Y9	Z9	X10	Y10	Z10	X11	Y11	Z11	X12	Y12	Z12	X13	Y13	Z13	X14	Y14	Z14	X15	Y15	Z15	X16	Y16	Z16	X17	Y17	Z17	X18	Y18	Z18	X19	Y19	Z19	X20	Y20	Z20	X21	Y21	Z21	X22	Y22	Z22	X23	Y23	Z23	X24	Y24	Z24	X25	Y25	Z25	X26	Y26	Z26	X27	Y27	Z27	X28	Y28	Z28	X29	Y29	Z29	X30	Y30	Z30	X31	Y31	Z31	X32	Y32	Z32	X33	Y33	Z33	

36	41.997500000000	866.519212311449	1003.086848635917	477.091344997292	1017.456856844709	1436.295868589316	289.399860280070	1139.138583006429	1368.748745185910	438.348702486390	1069.829512054926	1438.163467718420	620.062973207302	1017.653806171801	1494.485581602129	446.083531831455	1101.570996320222	939.605721427276	578.432841059359	1069.846302363525	962.157756585369	305.698353166184	1104.077609927144	726.022230271634	554.960572531036	1004.851774017023	630.305641359243	622.205592515256	1067.615299432634	562.540282956968	545.322677591144	1049.950047650416	468.123053222055	558.353336460979	1138.837981793372	762.443197231141	331.406567933319	1066.329345890158	636.687460382235	268.734442780328	1165.161420799132	569.214559155336	325.094823451464	1175.285947280264	497.541178779671	330.045954238499	1147.975433863961	423.459444521056	322.331378376357	1058.389145830724	309.144562093340	272.147462528987	1115.260365799612	195.701131506859	334.254276361410	993.220464910266	392.131030378481	567.287327909354	894.102143362900	316.846228677531	633.311996244438	906.050326671064	210.711115822328	575.027482818335	733.841974224275	74.360735429266	552.944164817033	911.347078932971	100.744918850039	585.208908863367	816.916037066772	50.965869652985	624.270025675853	1022.467992773952	37.733657659630	608.114571745338	993.401711089355	39.086283400213	376.077933825268	1062.746027960861	36.455817578480	291.822958038924	1147.132901842086	97.434281698202	315.183682107347	1273.899872262199	45.379488769730	278.472836282440	933.437764599493	1093.015992658238	180.513206264218	956.423851752321	832.547074157168	166.555106492242	1160.366415207039	1102.371293982329	733.996827985436	1402.183897734446	1035.668809225840	681.731798386923	
37	42.010571428571	866.592730927180	1003.932071801010	473.400814126035	1018.450491135987	1437.396333212618	286.507192112302	1139.508178778358	1369.667015704465	435.854424594008	1069.532892756381	1438.789308846347	617.383231385233	1017.839262180284	1495.340508042468	443.289014670963	1101.598199795239	940.469894787010	575.078460858807	1070.428694051666	963.123303636333	302.502776781325	1106.213931006353	727.117137412752	552.240726522035	1008.328942867888	630.712439234040	619.966986670342	1072.438584026170	563.101386174500	543.584839968284	1055.559660768438	467.339025205289	558.183106840108	1138.417803697773	762.116284390399	327.921127082495	1064.105443358345	636.477914780874	266.799355370378	1162.428593650375	568.452341349392	323.124553009068	1171.972264807289	497.045315650589	328.959300860455	1144.486063869916	423.071591515657	321.423754502422	1054.700152332855	308.938954070609	271.343316965633	1110.820161739673	195.532122882744	334.071718788066	996.763702825345	392.215531301784	567.048717403120	895.482293547690	319.520885852268	632.558683253625	905.775940287105	212.660885231216	575.410684960051	730.480713820419	80.151110593294	553.441591709552	908.575942380612	101.352077498378	585.619459026667	812.853046173531	53.836119489836	624.411483141166	1017.537518176678	37.551643983089	608.021704972699	988.181046839634	39.148974219261	376.039127336372	1057.523395821369	36.461244409426	291.810627309952	1142.017961382069	97.337584567028	315.198743022962	1268.738314923601	44.978558010991	278.412509292108	941.486262813914	1092.604881528981	175.516384925074	972.193627217640	832.926794486282	160.689642847765	1154.592789421887	1101.013737210846	731.225393936601	1392.266408895484	1017.793288436027	681.017961038919	
38	42.023642857143	866.527821163956	1004.728516069910	469.674331725551	1019.512045677324	1438.522553216820	283.640181348226	1139.856479751416	1370.510922724073	433.404661027584	1069.153872606723	1439.246087726605	614.756817071694	1018.001147647390	1496.132388950212	440.567231124534	1101.488673319176	941.288857584594	571.710745053806	1070.952149789015	963.969060943516	299.296338297014	1108.696713932728	728.264320423425	549.584019386064	1012.392796583468	631.045458636125	617.840573759236	1077.979694046526	563.700205243544	541.937743694027	1061.990034828152	466.577884037056	558.147657301148	1137.794529135023	761.672030320205	324.736510596998	1061.916785761626	636.297180225965	264.828708715624	1159.585115370282	567.701647215066	321.314874585096	1168.509950557855	496.508406813396	327.855416184233	1140.840604912893	422.645681974161	320.453325077465	1050.837016801389	308.678232554056	270.511782316658	1106.271108103970	195.327289092700	333.839426842507	1001.111910500765	392.336884574924	566.955114803483	897.626341160713	322.422326935964	631.903276294009	906.130252731062	214.858776607365	575.929457589184	727.617757294693	86.724041224726	554.049072826285	906.149779230855	102.004978176363	586.057296017126	809.055815322279	57.203844298651	624.605285043022	1012.595151690706	37.360702170988	607.926251640266	982.889614363480	39.183680618225	376.014152205669	1052.231264184491	36.433099847011	291.806324718079	1136.833498153677	97.207465559324	315.223035212211	1263.513889812788	44.554037628661	278.388483867593	949.712144245841	1092.416912152777	170.488502943972	988.646608101425	833.827963977469	154.887709005951	1148.596541075118	1099.620362692006	728.544428096361	1380.888290283445	999.864830143193	680.498053320820	
39	42.036714285714	866.317070519872	1005.431711946580	465.946121051888	1020.643866053039	1439.616081415060	280.802828580784	1140.181568812894	1371.229510190486	431.009174681077	1068.698757180487	1439.515123843455	612.185250627982	1018.150241875313	1496.827712218557	437.913169725168	1101.210192899280	942.028132718889	568.369473197674	1071.390444690087	964.666274694485	296.096792792722	1111.543476397298	729.470901660704	547.008154584767	1017.099852339310	631.293858636288	615.837761828931	1084.288891979021	564.349230092180	540.378512852813	1069.285961886993	465.869004769546	558.195295801658	1136.979367622571	761.146340296609	321.880594649174	1059.817593716223	636.164974112521	262.791304438124	1156.680399797037	566.978620790016	319.627794784681	1164.949105328594	495.939280914004	326.690762360024	1137.096676586429	422.182765912326	319.387802715164	1046.862537233574	308.367189999621	269.611667818520	1101.653579015607	195.089955677190	333.532768344466	1006.336639415186	392.502340974066	566.963647255377	900.628151800554	325.570596297503	631.339763235757	907.179471585129	217.342089029614	576.563772820137	725.362413837147	94.210711864110	554.766013578504	904.106574309484	102.780292002653	586.526065243233	805.589554164399	61.202787052363	624.865838303673	1007.636357599008	37.111912443602	607.847358383401	977.562182069208	39.194663118114	375.986321913233	1046.903960449223	36.378309688361	291.791104788150	1131.606073157307	97.060882040466	315.235492998967	1258.259015389665	44.134493539316	278.385135881374	958.085826238378	1092.420979301709	165.420389108994	1005.729003488705	835.264401129653	149.158638981375	1142.313728351918	1098.157569853112	725.927223799110	1368.004708272981	982.065710195629	680.201278876913	
